<svg width="25" height="25" viewBox="0 0 25 25" fill="none" xmlns="http://www.w3.org/2000/svg">
<path d="M10.5 16.5H5.5V21.5M14.5 8.5H19.5V3.5M5.083 9.503C5.6438 8.11545 6.58257 6.91302 7.79263 6.03237C9.00269 5.15171 10.4355 4.62815 11.9283 4.52118C13.4211 4.4142 14.9139 4.7281 16.2372 5.42721C17.5604 6.12631 18.6611 7.18259 19.414 8.476M19.918 15.497C19.3573 16.8848 18.4185 18.0875 17.2084 18.9683C15.9982 19.8492 14.5652 20.3729 13.0723 20.4798C11.5793 20.5868 10.0863 20.2728 8.76288 19.5735C7.43949 18.8742 6.33883 17.8177 5.586 16.524" stroke="black" stroke-width="2" stroke-linecap="round" stroke-linejoin="round"/>
</svg>
